<?xml version="1.0" encoding="UTF-8"?> <svg xmlns="http://www.w3.org/2000/svg" width="66" height="111" viewBox="0 0 66 111" fill="none"><path d="M26.7999 0.0418091C26.315 0.0777359 24.5733 0.185516 22.9394 0.293297C17.3551 0.652565 15.3081 0.93998 12.0042 1.83815C8.89788 2.68243 6.95865 3.88599 5.97108 5.57455C5.36058 6.63439 4.06776 9.778 3.31361 12.0594C2.1824 15.5083 1.94897 16.5322 1.66168 19.7297C1.53599 21.095 3.00836 27.49 5.80948 37.8369C8.17965 46.5851 8.43103 47.4294 8.75423 48.0761C9.20313 48.9203 10.0111 49.7646 10.7114 50.1239C11.3758 50.4832 11.3219 50.6089 10.3703 51.1478C9.56225 51.6149 8.53876 52.9801 8.12578 54.1657C7.98213 54.5968 7.08434 57.956 6.15064 61.6205C5.21693 65.285 4.13958 69.5424 3.7266 71.0693C2.63129 75.2727 0.56637 83.3922 0.243165 84.8293C-0.133908 86.428 -0.0620845 90.8291 0.386812 93.8829C1.2846 100.044 2.02079 103.637 2.6672 104.966C3.04428 105.757 4.48074 107.158 5.41445 107.661C6.40202 108.182 7.94622 108.631 10.0111 108.99C12.094 109.349 17.4987 109.924 17.7142 109.798C17.7681 109.763 18.594 109.798 19.5277 109.87C24.7349 110.319 33.0664 110.391 42.601 110.068C49.3165 109.834 50.0706 109.781 53.0154 109.403C53.2129 109.367 53.7336 109.313 54.1825 109.26C56.3552 109.044 59.0126 108.361 60.3593 107.679C61.311 107.194 62.7654 105.811 63.1964 104.966C63.3759 104.589 63.6991 103.565 63.8787 102.703C64.3635 100.493 65.2792 94.2242 65.5127 91.4578C65.6204 90.1644 65.7461 88.7453 65.7999 88.2603C65.8538 87.7932 65.8179 87.2723 65.7461 87.0927C65.6743 86.931 65.6024 86.6256 65.5845 86.428C65.5665 86.2304 65.4947 85.7095 65.4229 85.2604C65.2792 84.452 62.119 71.6621 60.1259 63.8839C57.5223 53.6447 57.5582 53.7525 56.6604 52.4232C55.9961 51.4532 55.0624 50.8424 53.9132 50.6628C53.0693 50.5191 53.0513 50.5191 53.6438 50.4652C54.7212 50.3574 55.206 50.052 55.9422 49.0102C56.7143 47.8785 56.9836 47.1779 57.7557 44.1241C58.043 42.9924 58.5817 40.9985 58.9408 39.7231C59.5513 37.5315 60.3234 34.6214 61.7778 28.8552C62.3524 26.6277 63.0168 23.6997 63.5016 21.3465C63.8607 19.6399 63.735 18.1849 63.0527 15.4904C62.3165 12.6521 60.3234 6.95773 59.6052 5.61047C57.9353 2.55669 52.9256 0.868126 43.6784 0.293297C40.6079 0.0956955 28.4697 -0.0839386 26.7999 0.0418091ZM37.8427 0.904053C45.9947 1.13758 51.8123 1.92797 55.1342 3.29319C57.9892 4.47878 58.869 5.70029 60.8082 11.269C61.311 12.706 61.724 13.9814 61.724 14.1252C61.724 14.2509 61.3289 13.9814 60.8441 13.5324C59.3538 12.1312 57.3966 11.3408 53.5541 10.5504C51.6687 10.1732 49.9809 9.99356 43.409 9.5265C34.6106 8.87982 19.8869 9.36484 12.7045 10.5325C8.26943 11.251 5.89926 12.1312 4.51666 13.5503C4.08572 14.0174 3.7266 14.3048 3.7266 14.197C3.7266 13.8198 6.02495 7.7122 6.56362 6.67032C7.03047 5.73622 8.46694 4.40693 9.61611 3.81413C11.6451 2.79021 17.0857 1.5687 21.2874 1.19147C23.2626 1.01183 33.264 0.688492 34.2515 0.778313C34.5029 0.796272 36.1189 0.850166 37.8427 0.904053ZM41.1107 9.90374C46.8745 10.2091 53.2488 10.8917 55.3856 11.4486C58.7613 12.3108 61.3469 14.3587 62.1729 16.8017C62.6756 18.3286 62.8013 20.3046 62.514 22.0291C62.2806 23.3763 59.7668 33.5436 58.061 40.0823C57.0016 44.1061 55.9601 47.4114 55.5113 48.2018C54.8289 49.3874 53.5182 50.2317 52.369 50.2317C51.938 50.2317 51.8483 50.1598 51.8483 49.8006C51.8483 49.4592 51.9919 49.3155 52.4408 49.1718C52.9795 48.9922 53.6977 48.3455 54.3262 47.5192C54.7571 46.9444 59.6052 27.6876 60.7364 22.0291C61.4726 18.4184 60.2875 15.3467 57.63 13.8916C56.822 13.4605 54.7212 12.7959 52.6563 12.3647C49.9629 11.7719 40.9491 11.251 33.5333 11.251C28.3261 11.251 21.1976 11.4666 18.9891 11.7001C18.5402 11.736 17.3371 11.8797 16.2957 11.9875C9.40064 12.706 6.2045 14.1072 4.92964 16.9634C4.46279 18.0412 4.31914 20.1429 4.60643 21.9931C5.18102 25.6397 10.3882 45.9923 11.1065 47.3934C11.4656 48.112 12.3813 48.9563 12.92 49.064C13.2971 49.1539 13.4228 49.2796 13.4228 49.6209C13.4228 50.1957 13.0995 50.3035 12.1479 50.052C11.6272 49.9083 11.0705 49.5491 10.5319 48.9922C9.75976 48.2198 9.63407 47.9683 8.87993 45.5612C7.92827 42.5433 7.12025 39.5255 4.75008 30.2923C2.59538 21.8674 2.37991 20.5022 2.90063 18.0412C3.61886 14.7 5.86334 12.5983 9.79567 11.5923C12.3813 10.9277 19.7612 10.1013 25.0941 9.88578C26.5305 9.81393 27.7336 9.74207 27.7695 9.70614C27.967 9.5265 36.3703 9.67021 41.1107 9.90374ZM38.8123 11.7899C44.1811 12.0414 49.496 12.5623 53.4643 13.209C55.188 13.4964 55.7267 13.6761 57.0734 14.4844C58.5458 15.3467 59.4436 16.3706 59.9463 17.6999C60.2696 18.5621 60.3055 18.9753 60.2336 20.592C60.1439 22.8554 59.8207 24.3464 57.0195 35.5915C54.1287 47.2497 53.9311 47.8066 52.4049 48.5072C51.6328 48.8485 51.1659 48.8844 45.5637 48.9922C42.2598 49.064 35.5982 49.1179 30.7501 49.1359C22.5802 49.1718 22.0056 49.1898 22.5802 49.4592C23.1369 49.7107 24.717 49.7287 37.2681 49.6209L51.3455 49.5131L51.2378 50.2856C51.1839 50.6987 51.148 51.2556 51.148 51.543L51.13 52.028L49.6576 51.9202C47.8441 51.7765 47.88 52.1358 49.6936 52.3154C50.34 52.3873 50.9684 52.513 51.0762 52.6208C51.2019 52.7106 51.6328 52.8004 52.0278 52.8184C52.4228 52.8364 52.9795 53.016 53.2488 53.2136C53.8952 53.6807 54.6853 55.3513 55.3497 57.6147C56.0679 60.0936 56.1397 59.411 55.4394 56.6626C54.7751 54.004 54.3082 53.2316 52.9256 52.513C52.0996 52.0819 51.938 51.9202 51.938 51.525C51.938 51.1119 52.0278 51.04 52.5126 50.9861C53.6977 50.8784 55.6729 52.1538 56.3372 53.4651C56.84 54.471 57.9532 58.2973 59.7488 65.4108C60.6646 68.9675 61.7778 73.3506 62.2626 75.129C63.735 80.6797 64.8483 85.7813 64.7944 86.8771C64.6508 90.0027 63.4118 92.1404 60.9698 93.3619C59.6591 94.0266 56.822 94.7631 55.188 94.8708C54.4878 94.9068 53.195 94.9966 52.2972 95.0505C51.4173 95.1044 49.5858 95.266 48.2571 95.4097C46.9284 95.5535 43.8938 95.751 41.5237 95.8768C34.7004 96.2181 18.9352 95.8588 15.6672 95.302C15.0747 95.2121 13.9794 95.0864 13.2432 95.0325C10.7294 94.8708 7.51528 94.4038 6.38406 94.0445C3.79842 93.2002 1.84123 91.4937 1.30256 89.6076C0.584326 87.1645 0.710017 86.1226 2.73903 78.2008C3.38544 75.7038 4.75008 70.3507 5.79152 66.309C9.257 52.7645 9.29291 52.6567 11.5015 51.4712C12.8302 50.7706 13.315 50.8245 13.3868 51.6688C13.4228 52.2436 13.3689 52.3334 12.6686 52.6567C11.5733 53.1777 10.9808 54.1477 10.3523 56.447C10.065 57.5248 9.83158 58.6026 9.84954 58.8541L9.8675 59.3032L10.0111 58.8541C10.1009 58.6026 10.3703 57.6865 10.6396 56.8063C11.4835 53.9681 12.0402 53.1956 13.333 52.998C14.7156 52.7825 16.6548 52.2975 16.6548 52.1538C16.6548 51.9921 15.5595 52.0819 14.5719 52.3154C14.1051 52.4412 13.9614 52.028 13.9614 50.4293V49.2796L14.7515 49.3874C15.1824 49.4592 15.6134 49.5131 15.7031 49.5311C16.3496 49.6389 19.8869 49.4772 19.8869 49.3335C19.8869 49.2257 19.3302 49.1539 18.594 49.1539C17.3012 49.1539 14.554 48.9024 13.5305 48.6868C12.5968 48.4892 11.5913 47.2497 11.0526 45.633C9.95728 42.3457 6.40202 28.5318 5.41445 23.7356C4.40892 18.8136 5.21693 16.155 8.17965 14.6102C11.1065 13.0833 13.8537 12.6342 25.2736 11.8079C28.2363 11.5923 34.5388 11.5923 38.8123 11.7899ZM64.7765 90.4159C64.6867 90.7033 64.4353 92.2841 64.2378 93.9727C63.6452 98.8408 62.8731 102.901 62.2806 104.176C60.7005 107.697 56.2115 108.739 40.0872 109.349C30.0499 109.727 18.7736 109.26 10.8192 108.146C6.68931 107.553 4.13958 106.008 3.20588 103.493C2.82881 102.505 2.1824 99.0024 1.48212 94.2421C1.32052 93.1104 1.14096 91.8709 1.08709 91.4937C0.961399 90.6135 1.26665 90.6315 1.76941 91.5476C3.25975 94.1882 8.79015 95.7331 18.1811 96.1283C19.4739 96.1822 21.9697 96.3079 23.7474 96.3977C31.1452 96.775 42.8344 96.5594 51.4891 95.8588C56.7682 95.4457 60.6107 94.4218 62.6756 92.9128C63.1964 92.5536 64.4174 90.883 64.6508 90.2363C64.8483 89.7333 64.956 89.895 64.7765 90.4159Z" fill="#112250"></path><path d="M27.4256 1.74821C26.1866 1.83803 24.9477 1.92784 24.6424 1.94581C24.3551 1.98173 27.659 2.01766 32.0043 2.03562C36.3496 2.05359 40.7129 2.1434 41.7005 2.23322C43.496 2.39489 44.5554 2.21526 42.9215 2.01766C40.264 1.71228 30.6217 1.53265 27.4256 1.74821Z" fill="#112250"></path><path d="M46.2812 2.44832C46.2812 2.53814 46.3172 2.62795 46.371 2.62795C46.9097 2.62795 50.5188 3.23871 51.1114 3.43631C52.0451 3.75965 52.2067 3.75965 52.2067 3.52613C52.2067 3.2926 50.6266 2.86148 48.9208 2.62795C48.1127 2.53814 47.179 2.39443 46.8738 2.34054C46.5147 2.28665 46.2812 2.32257 46.2812 2.44832Z" fill="#112250"></path><path d="M16.0228 2.73582C14.317 3.00527 11.875 3.61603 11.444 3.88548C10.9054 4.22678 11.4081 4.20882 12.5034 3.88548C13.1319 3.68788 14.9095 3.31065 16.4537 3.05916C17.9979 2.80767 19.2907 2.55618 19.3266 2.52026C19.4882 2.37655 17.5849 2.50229 16.0228 2.73582Z" fill="#112250"></path><path d="M55.4375 4.33414C55.4375 4.38804 55.7787 4.76527 56.2096 5.19639C56.6226 5.60955 57.0535 6.11253 57.1613 6.31012C57.5383 6.95681 57.682 6.39994 57.3229 5.71733C56.8919 4.9449 55.4375 3.86709 55.4375 4.33414Z" fill="#112250"></path><path d="M8.34204 5.34082C7.60585 5.95157 6.70805 7.56828 6.0796 9.45444C5.84617 10.1011 5.55888 10.8556 5.43319 11.161C5.10999 11.8615 5.23568 11.9514 5.79231 11.4304C6.06164 11.161 6.20529 10.8915 6.15142 10.6939C5.88209 9.88557 7.51607 6.5264 8.66524 5.52045C9.70668 4.62228 9.41939 4.46061 8.34204 5.34082Z" fill="#112250"></path><path d="M58.5481 7.69358C58.6019 7.81932 58.9431 8.80731 59.3022 9.90308C59.9666 11.8431 60.182 12.3102 60.3796 12.1126C60.5591 11.933 58.8892 7.47802 58.6378 7.47802C58.5301 7.47802 58.5121 7.5858 58.5481 7.69358Z" fill="#112250"></path><path d="M8.6632 15.2565C8.07066 15.8493 7.81928 16.6396 8.21431 16.6396C8.32204 16.6396 8.39387 16.5139 8.39387 16.3702C8.39387 16.2265 8.64525 15.8313 8.9505 15.472C9.70464 14.6277 9.47122 14.4481 8.6632 15.2565Z" fill="#112250"></path><path d="M56.7137 15.1478C56.7317 15.4172 56.7855 15.8483 56.8574 16.0998C56.9651 16.4771 57.001 16.495 57.1087 16.2256C57.2524 15.8663 57.0728 14.8783 56.8574 14.7346C56.7676 14.6807 56.6958 14.8603 56.7137 15.1478Z" fill="#112250"></path><path d="M8.17562 17.6458C8.03197 17.7895 8.44495 19.7835 9.71982 24.8851C10.7792 29.1424 11.0845 30.2023 11.0845 29.6275C11.0845 29.4119 10.5099 26.8072 9.39661 21.993C8.94772 20.0529 8.57065 18.3105 8.57065 18.0949C8.57065 17.7357 8.33722 17.4662 8.17562 17.6458Z" fill="#112250"></path><path d="M56.2599 19.7299C55.9188 20.8796 54.7516 25.8734 53.9975 29.3942C53.6922 30.8313 53.4049 32.1606 53.3511 32.3582C53.2972 32.6277 53.3331 32.5917 53.5127 32.2684C53.6563 32.0169 53.9975 30.8133 54.2668 29.5739C54.5362 28.3344 54.9851 26.3764 55.2724 25.2267C55.829 22.9992 56.5113 19.5143 56.3856 19.5143C56.3497 19.5143 56.2958 19.6221 56.2599 19.7299Z" fill="#112250"></path><path d="M54.1689 25.1906C54.0073 25.8373 53.9535 26.2864 54.0432 26.1966C54.133 26.1068 54.2767 25.7475 54.3485 25.4241C54.4203 25.0828 54.546 24.6338 54.6178 24.4002C54.6897 24.1847 54.6897 24.005 54.5999 24.005C54.5281 24.005 54.3305 24.5439 54.1689 25.1906Z" fill="#112250"></path><path d="M52.6551 34.8C52.6192 34.9437 52.2421 36.255 51.8291 37.746C50.8954 41.0872 50.7338 41.4465 50.0515 42.0213C49.2794 42.668 48.4534 42.8656 46.3706 42.8656C44.9879 42.8476 44.6468 42.8117 44.9161 42.65C45.1855 42.4884 46.0294 42.3806 47.1427 42.3267C47.2504 42.3267 47.3581 42.2548 47.3581 42.183C47.3581 41.8956 45.3112 42.0932 44.0542 42.4884C42.9051 42.8476 42.4382 42.8656 36.0639 42.9015L29.3125 42.9195L34.789 43.0812C41.8098 43.2608 48.7048 43.171 49.423 42.8836C49.9976 42.65 50.8775 41.8956 51.1468 41.3746C51.3802 40.9615 52.9244 34.7282 52.8347 34.6204C52.7808 34.5844 52.709 34.6563 52.6551 34.8Z" fill="#112250"></path><path d="M12.7195 36.3089C12.6836 36.6681 13.9046 41.177 14.1919 41.7159C14.5869 42.4703 14.8742 42.6679 15.9695 42.9733C17.0648 43.2607 19.2734 43.3146 19.435 43.0452C19.5068 42.9374 19.0041 42.8655 18.0524 42.8655C15.3411 42.8655 14.6408 42.3985 13.9944 40.2249C13.2043 37.5843 12.7375 36.1292 12.7195 36.3089Z" fill="#112250"></path><path d="M17.0078 42.3262C17.0078 42.416 17.1335 42.5059 17.2772 42.5059C17.4208 42.5059 17.5465 42.416 17.5465 42.3262C17.5465 42.2184 17.4208 42.1466 17.2772 42.1466C17.1335 42.1466 17.0078 42.2184 17.0078 42.3262Z" fill="#112250"></path><path d="M19.9972 43.0634C20.0869 43.2251 21.2541 43.2431 24.3604 43.1533C26.6767 43.0814 28.616 42.9916 28.6698 42.9557C28.7057 42.9018 26.7486 42.8658 24.3066 42.8658C21.0206 42.8658 19.9074 42.9197 19.9972 43.0634Z" fill="#112250"></path><path d="M14.43 44.3397C14.1966 44.8606 13.9272 45.6869 13.8015 46.1899C13.6758 46.6749 13.5501 47.2318 13.4963 47.3935C13.4244 47.609 13.4963 47.7168 13.6758 47.7168C13.8554 47.7168 13.9631 47.5551 13.9631 47.3396C13.9631 46.8007 14.4838 45.0582 14.8789 44.2678C15.2739 43.4954 15.2919 43.4056 15.0225 43.4056C14.9327 43.4056 14.6634 43.8367 14.43 44.3397Z" fill="#112250"></path><path d="M49.7453 43.6205C50.4995 45.327 50.9483 46.5665 50.9483 46.9078C50.9483 47.1413 51.0381 47.3928 51.1279 47.4467C51.2356 47.5006 51.3075 47.3748 51.3075 47.1233C51.3075 46.6742 50.5892 44.4468 50.2481 43.7821C50.0326 43.3869 49.5837 43.2432 49.7453 43.6205Z" fill="#112250"></path><path d="M25.9916 51.8471C20.9998 51.901 16.8879 51.9549 16.8341 51.9908C16.7982 52.0088 16.8341 52.0986 16.9239 52.1704C17.0316 52.2603 19.2402 52.2603 21.8617 52.1884C24.4833 52.1165 28.9543 52.0447 31.7913 52.0447C35.1849 52.0267 36.9267 51.9728 36.8548 51.8471C36.801 51.7393 36.37 51.6854 35.9032 51.7034C35.4363 51.7393 30.9833 51.7932 25.9916 51.8471Z" fill="#112250"></path><path d="M37.4766 51.7932C37.4766 52.0447 47.5318 52.2782 47.7832 52.0268C47.9089 51.901 47.4241 51.8471 46.257 51.8471C45.3412 51.8471 42.971 51.7932 41.0318 51.7214C38.7335 51.6495 37.4766 51.6675 37.4766 51.7932Z" fill="#112250"></path><path d="M12.4586 54.0397C11.5428 55.0457 11.4351 55.387 9.33428 63.9735C8.84947 65.9495 8.27489 68.3386 8.05942 69.2727C7.84395 70.2068 7.46687 71.8235 7.21549 72.8654C6.53317 75.7216 6.4793 76.9251 6.94615 77.8592C7.26936 78.5059 7.28731 78.6317 7.07184 78.7215C6.51521 78.937 5.85085 80.1047 5.40195 81.6316C4.91714 83.3201 4.37847 85.9428 4.18095 87.6852C4.07322 88.5655 4.01935 88.6912 3.85775 88.4038C3.57046 87.8828 3.69615 85.0267 4.09118 82.9429C4.28869 81.901 4.41438 81.0208 4.36051 80.9849C4.25278 80.8771 4.19891 81.0567 3.73206 82.9249C3.17543 85.1524 3.06769 87.4338 3.46272 88.7631C3.91162 90.3618 5.15057 91.5115 7.07184 92.1402C11.3812 93.5413 21.0235 94.1701 35.6396 94.0084C46.054 93.8826 51.6562 93.5773 55.804 92.8767C60.2391 92.1222 62.1783 90.4875 62.3938 87.2541C62.5015 85.835 62.0347 82.4758 61.7115 82.2782C61.496 82.1525 61.5139 82.4399 61.8192 84.0566C62.1424 85.7452 62.1424 87.4517 61.8371 88.314L61.6037 88.9427L61.478 87.7751C61.4062 87.1284 61.065 85.2243 60.7239 83.5537C60.0775 80.3562 59.7363 79.5478 58.6769 78.7574C58.2101 78.4161 56.3606 77.9311 54.7805 77.7335L53.8288 77.6257L53.2004 76.2964C52.3565 74.536 50.3275 72.4882 48.5498 71.6259C46.7902 70.7637 44.2763 70.2787 42.3551 70.4403C40.2722 70.62 38.0457 71.3924 36.6272 72.4522C36.3039 72.7037 35.9987 72.8654 35.9807 72.8474C35.9448 72.8115 35.6037 72.2906 35.1907 71.6798C33.8081 69.614 31.5816 67.9255 29.0318 67.0452C28.3136 66.7938 27.6672 66.5243 27.5774 66.4345C27.3979 66.2549 28.1161 64.6741 28.7086 63.9016C28.9061 63.6681 29.0498 63.2909 29.0498 63.0753C29.0498 62.7879 29.1934 62.6262 29.4987 62.5544C29.7501 62.4825 30.0553 62.249 30.1631 61.9975C30.4324 61.4227 29.9476 60.6503 29.3191 60.6503C28.96 60.6503 28.8882 60.5604 28.8343 59.9676L28.7805 59.303H27.6133C26.9669 59.303 26.3025 59.2311 26.123 59.1413C25.9434 59.0515 25.3509 59.0515 24.7763 59.1234C24.2197 59.1952 23.2501 59.2491 22.6575 59.2311C21.4365 59.2132 21.221 59.3569 21.1133 60.2012C21.0774 60.6143 20.9697 60.7221 20.7003 60.7041C20.0898 60.6323 19.6768 61.0814 19.7487 61.764C19.7846 62.267 19.8923 62.3927 20.3951 62.5364C20.8619 62.6622 21.0056 62.8418 21.1672 63.4166C21.2749 63.8118 21.634 64.6741 21.9572 65.3387L22.5677 66.5243L21.0954 67.0093C18.1506 67.9793 15.8163 69.7937 14.3619 72.2546C13.4821 73.7276 12.9434 75.1468 12.7459 76.494C12.6202 77.3922 12.5843 77.4461 11.9917 77.5539C11.6506 77.6078 10.5194 77.8413 9.51384 78.0568C8.49036 78.2724 7.62848 78.4341 7.61052 78.3981C7.57461 78.3622 7.41301 77.9491 7.2514 77.464C6.83842 76.1886 6.89229 75.1108 7.48483 73.3504C7.79008 72.4882 8.27489 70.6739 8.58013 69.3266C8.88538 67.9793 9.42406 65.698 9.76522 64.2609C10.1064 62.8238 10.663 60.4527 11.0042 58.9976C11.6326 56.3031 12.2431 54.6684 12.8895 54.0936C13.2487 53.7703 13.3564 53.4649 13.123 53.4649C13.0332 53.4649 12.7459 53.7164 12.4586 54.0397ZM26.1948 59.9856C26.4821 60.3269 26.518 60.3449 26.8053 60.0575C26.9669 59.8778 27.3799 59.7521 27.739 59.7521C28.3495 59.7521 28.3675 59.7701 28.2956 60.291C28.2418 60.5964 28.2777 60.8838 28.3675 60.9377C28.4393 60.9916 28.5111 61.261 28.5111 61.5305C28.5111 61.9257 28.3854 62.0514 27.8647 62.249C27.2003 62.4825 26.913 62.3568 26.8951 61.7999C26.8951 61.6921 26.5898 61.3868 26.2128 61.1173C25.4407 60.5964 24.3813 60.4886 24.0222 60.9197C23.8965 61.0634 23.681 61.1892 23.5553 61.1892C23.3398 61.1892 23.1962 61.6921 23.286 62.1592C23.3039 62.249 23.2321 62.3748 23.1244 62.4466C22.9987 62.5185 23.2141 62.6981 23.663 62.8777C24.7404 63.3088 27.1644 63.0035 26.6437 62.5005C26.5719 62.4286 26.3564 62.4646 26.1769 62.5903C25.3688 63.0933 23.663 62.6262 23.663 61.9077C23.663 61.4586 24.076 61.1712 24.884 61.0634C25.5304 60.9736 25.6202 61.0275 26.3205 61.8358C26.7335 62.3209 27.0746 62.8598 27.0746 63.0214C27.0746 63.5963 26.2128 65.716 25.7998 66.1471C25.3509 66.6321 24.5429 66.7219 24.2197 66.3267C23.9683 66.0213 22.7652 63.255 22.6396 62.6622C22.5677 62.3927 22.4061 62.267 22.1188 62.267C21.6161 62.267 21.257 61.6921 21.4365 61.1353C21.5083 60.9197 21.5622 60.5784 21.5442 60.3808C21.4904 59.8958 21.7777 59.5006 22.047 59.6623C22.1727 59.7341 22.2086 59.9676 22.1547 60.2191C22.065 60.5604 22.1188 60.6503 22.3702 60.6503C22.6396 60.6503 22.6934 60.5425 22.6216 60.0934L22.5318 59.5365L23.0885 59.8239C23.7708 60.1832 23.8426 60.1832 23.8426 59.8599C23.8426 59.6802 24.094 59.5725 24.6147 59.5365C25.5843 59.4647 25.8357 59.5365 26.1948 59.9856ZM29.768 61.3688C29.768 61.7281 29.5346 62.0873 29.3012 62.0873C28.9421 62.0873 28.7805 61.6023 29.0498 61.279C29.2473 61.0275 29.768 61.0993 29.768 61.3688ZM20.9697 61.6562C20.9697 62.249 20.3771 62.1951 20.2873 61.5844C20.2335 61.279 20.3233 61.1892 20.5926 61.1892C20.8799 61.1892 20.9697 61.2969 20.9697 61.6562ZM22.5857 63.8298C22.8191 64.4046 23.2321 65.3387 23.5194 65.9315C23.8067 66.5063 24.0042 67.0093 23.9683 67.0452C23.8426 67.171 23.3039 66.9195 23.3039 66.7399C23.3039 66.6501 22.9448 65.9495 22.5139 65.177C22.0829 64.4226 21.6699 63.4885 21.5981 63.1113C21.4904 62.4646 21.5083 62.4286 21.8315 62.6083C22.0291 62.7161 22.3702 63.255 22.5857 63.8298ZM28.5111 62.8238C28.5111 63.3987 27.1465 65.8597 26.3025 66.7758C25.4766 67.6919 24.7404 67.9973 24.3813 67.5662C24.076 67.189 24.3274 66.9375 25.0097 66.9375C25.9255 66.9375 26.5719 66.1291 27.344 63.9735C27.8288 62.6442 28.5111 61.9616 28.5111 62.8238ZM27.4338 66.6321C27.4338 66.668 27.2542 66.8476 27.0567 67.0452C26.6617 67.3866 26.6617 67.3866 26.913 66.9734C27.1285 66.6321 27.4338 66.4345 27.4338 66.6321ZM29.0318 67.5662C31.4738 68.3925 34.3647 70.7816 35.1907 72.6678C35.3882 73.1169 35.6935 73.7815 35.873 74.1228C36.0346 74.4642 36.286 75.3084 36.4296 75.9731C36.6272 77.0329 36.6272 77.2305 36.3937 77.3742C35.8551 77.7155 35.5318 77.5539 35.4241 76.8533C34.8136 73.1169 31.9586 69.9733 28.2956 69.0212C25.8177 68.3745 22.873 68.5362 20.6105 69.4164C17.3965 70.6739 14.8826 73.6558 14.5774 76.6018C14.4517 77.6796 14.4337 77.7155 13.931 77.7155C13.6437 77.7155 13.3743 77.6078 13.3205 77.464C13.1768 77.0688 14.0746 73.9432 14.5056 73.3863C14.7031 73.0989 14.8647 72.7397 14.8647 72.56C14.8826 71.7337 17.4862 69.2009 19.21 68.3566C20.3771 67.7638 21.8495 67.2967 22.5139 67.2967C22.7832 67.2967 23.1962 67.4584 23.4117 67.674C23.8426 68.0871 25.3329 68.2308 26.0332 67.9434C26.2666 67.8536 26.5898 67.7997 26.7694 67.8177C26.9669 67.8536 27.2362 67.6919 27.3799 67.4943C27.5235 67.2788 27.6492 67.1171 27.6851 67.1171C27.7031 67.1171 28.3136 67.3147 29.0318 67.5662ZM28.17 69.5961C30.2887 70.1889 32.2639 71.6619 33.4669 73.5301L34.0774 74.4462L33.3053 75.8833L32.5512 77.3024L30.7556 77.464C28.0443 77.6976 20.3951 77.6616 18.5456 77.4102C17.6658 77.2844 16.5525 77.1587 16.0857 77.1227C15.6188 77.0868 15.1879 77.015 15.1161 76.9611C15.0622 76.8892 15.1879 76.3323 15.4034 75.7036C16.5166 72.5241 18.7611 70.3864 21.8675 69.5601C23.3398 69.1649 26.6976 69.2009 28.17 69.5961ZM45.4435 71.1768C47.3288 71.608 49.5554 72.7397 50.6327 73.8354C51.6023 74.8055 52.8054 76.4761 53.0029 77.1048C53.1106 77.4461 53.0567 77.482 52.3744 77.482C51.6921 77.482 51.6023 77.4281 51.0457 76.5659C49.8606 74.7156 47.9214 73.4762 45.3896 72.9373C43.0913 72.4522 40.2183 72.9373 37.9738 74.1767C36.681 74.9132 36.3399 74.8593 37.076 74.069C37.3633 73.7636 37.4531 73.566 37.3095 73.6199C36.3578 73.9432 36.2321 73.9612 36.2321 73.7097C36.2321 73.3504 38.5843 71.9133 39.7874 71.5181C41.8164 70.8535 43.5401 70.7457 45.4435 71.1768ZM46.4849 73.7815C47.1134 73.9971 47.7957 74.2486 47.9932 74.3564C48.5498 74.6438 50.2556 76.3144 50.507 76.8353L50.7584 77.3024L48.478 77.464C45.9283 77.6257 41.9062 77.6257 39.1589 77.4461C37.1658 77.3203 37.2556 77.3742 37.0401 76.0809C36.9324 75.4521 36.9504 75.4162 37.8302 74.8593C40.3081 73.2606 43.6299 72.8474 46.4849 73.7815ZM34.9752 76.5479C34.9752 76.7635 34.8854 77.015 34.7597 77.1407C34.4904 77.4102 33.6106 77.4281 33.449 77.1766C33.3233 76.979 33.9876 75.7575 34.3288 75.524C34.5622 75.3803 34.9573 76.027 34.9752 76.5479ZM54.1341 78.452C57.0429 78.7933 57.5277 78.9011 58.2639 79.3861C58.6769 79.6556 59.1438 80.0867 59.2874 80.3562C59.6286 81.0208 60.9394 86.5176 61.083 87.8649C61.2446 89.3199 60.9753 89.9846 60.0236 90.6492C58.3896 91.7809 56.0733 92.3198 51.1893 92.733C50.7045 92.7689 49.6092 92.8767 48.7114 92.9665C42.6603 93.6132 28.5291 93.8108 22.5857 93.3437C20.6465 93.1821 17.6478 92.9845 16.6603 92.9485C16.4089 92.9306 14.8288 92.7869 13.123 92.6072C8.3108 92.0863 6.53317 91.6013 5.29422 90.4337C4.68372 89.8588 4.62985 89.7151 4.62985 88.8349C4.62985 87.6673 4.98897 85.3859 5.52764 83.2123C6.42543 79.476 7.17958 78.8652 11.3992 78.47C13.5 78.2724 52.5001 78.2544 54.1341 78.452Z" fill="#112250"></path><path d="M27.0701 60.5597C26.675 61.0447 26.9803 61.1705 27.519 60.7214C28.0038 60.3262 28.0217 60.2903 27.6806 60.2903C27.4651 60.2903 27.1958 60.416 27.0701 60.5597Z" fill="#112250"></path><path d="M21.7652 67.9432L21.2266 68.1768L21.7652 68.069C22.3398 67.9612 22.5014 67.8714 22.3757 67.7636C22.3398 67.7277 22.0705 67.7995 21.7652 67.9432Z" fill="#112250"></path><path d="M28.5878 68.0147C28.6417 68.1045 28.7315 68.1943 28.7853 68.1943C28.8212 68.1943 28.8571 68.1045 28.8571 68.0147C28.8571 67.9069 28.7674 67.8351 28.6596 67.8351C28.5699 67.8351 28.5339 67.9069 28.5878 68.0147Z" fill="#112250"></path><path d="M19.7952 68.6253C19.3104 68.8588 18.5742 69.3439 18.1792 69.7211L17.4609 70.3857L18.3767 69.7391C18.8794 69.3798 19.7234 68.8948 20.262 68.6433C20.8007 68.3918 21.106 68.1942 20.9623 68.2122C20.8187 68.2122 20.298 68.4098 19.7952 68.6253Z" fill="#112250"></path><path d="M48.4297 73.2237C48.4297 73.3135 48.5554 73.4033 48.717 73.4033C48.8606 73.4033 48.9325 73.3135 48.8786 73.2237C48.8247 73.1159 48.699 73.0441 48.5913 73.0441C48.5015 73.0441 48.4297 73.1159 48.4297 73.2237Z" fill="#112250"></path><path d="M50.4141 74.6434C50.4141 74.7332 50.5398 74.8589 50.7014 74.9128C50.9527 75.0026 50.9707 74.9847 50.7732 74.7511C50.5218 74.4458 50.4141 74.4098 50.4141 74.6434Z" fill="#112250"></path><path d="M51.8438 76.7994C51.8438 76.8892 51.9335 77.0329 52.0233 77.0868C52.131 77.1407 52.2029 77.1227 52.2029 77.0149C52.2029 76.9251 52.131 76.7814 52.0233 76.7275C51.9335 76.6736 51.8438 76.6916 51.8438 76.7994Z" fill="#112250"></path><path d="M58.3264 80.4996C58.3623 80.6074 58.5598 81.1104 58.7394 81.6313C58.9369 82.1523 59.1703 82.5654 59.2601 82.5654C59.3319 82.5654 59.3678 82.4217 59.314 82.2421C59.2601 82.0804 59.1703 81.7211 59.1165 81.4517C59.0446 81.2002 58.8292 80.823 58.6316 80.6433C58.4162 80.4637 58.2905 80.4098 58.3264 80.4996Z" fill="#112250"></path><path d="M6.74342 81.1825C6.42022 81.8472 6.13292 83.0867 6.33044 82.8891C6.43817 82.7813 7.31801 80.7873 7.31801 80.6257C7.31801 80.6077 7.24619 80.5898 7.17436 80.5898C7.08458 80.5898 6.90503 80.8592 6.74342 81.1825Z" fill="#112250"></path><path d="M60.0097 86.5167C59.9558 86.6065 59.9917 86.6963 60.0815 86.6963C60.1892 86.6963 60.279 86.6065 60.279 86.5167C60.279 86.4089 60.2431 86.337 60.2072 86.337C60.1533 86.337 60.0636 86.4089 60.0097 86.5167Z" fill="#112250"></path><path d="M5.36042 89.1755C5.32451 89.7862 6.2223 90.8102 6.77893 90.8281C6.94053 90.8281 6.79689 90.5946 6.41981 90.2353C6.07865 89.912 5.70158 89.4809 5.57589 89.2833C5.4502 89.0857 5.36042 89.0318 5.36042 89.1755Z" fill="#112250"></path><path d="M59.3397 90.0919C58.6035 90.5589 58.5138 90.7385 59.1602 90.3972C59.4654 90.2356 59.7886 90.038 59.8425 89.9302C59.9861 89.6967 59.9502 89.7146 59.3397 90.0919Z" fill="#112250"></path><path d="M53.8203 55.5312C53.8203 55.603 54.2872 57.6149 54.8797 60.0041C55.4543 62.3752 56.1366 65.3033 56.406 66.4889C57.0165 69.1834 58.1118 73.2252 58.3272 73.5844C58.5607 73.9617 58.3631 72.812 57.8424 70.6205C57.609 69.6325 57.0524 67.2074 56.6035 65.2314C55.8673 61.9621 54.7899 57.6688 54.341 56.2138C54.1794 55.6928 53.8203 55.2258 53.8203 55.5312Z" fill="#112250"></path><path d="M12.1641 56.6261C12.1641 56.7698 12.2538 56.8417 12.3436 56.7878C12.4514 56.7339 12.5232 56.6081 12.5232 56.5004C12.5232 56.4105 12.4514 56.3387 12.3436 56.3387C12.2538 56.3387 12.1641 56.4644 12.1641 56.6261Z" fill="#112250"></path><path d="M11.9104 57.3628C11.8027 57.6142 11.8206 57.6322 12.0002 57.4705C12.1259 57.3448 12.1798 57.2011 12.1259 57.1472C12.072 57.0933 11.9643 57.1831 11.9104 57.3628Z" fill="#112250"></path><path d="M57.8756 67.35C57.9654 68.1404 58.4502 69.775 58.4682 69.3619C58.4682 69.2541 58.3245 68.5715 58.127 67.835C57.8397 66.7392 57.7858 66.6494 57.8756 67.35Z" fill="#112250"></path><path d="M6.15159 73.4939C5.90021 74.3561 5.70269 75.1285 5.7386 75.2363C5.77452 75.3441 6.04385 74.6974 6.31319 73.7813C6.60048 72.8651 6.78004 72.0927 6.72618 72.0388C6.67231 71.9849 6.42093 72.6316 6.15159 73.4939Z" fill="#112250"></path><path d="M59.4032 73.5287C59.6007 74.5706 60.1034 76.1514 60.2112 76.0436C60.3189 75.9358 59.5109 72.6844 59.3673 72.6844C59.3134 72.6844 59.3313 73.0617 59.4032 73.5287Z" fill="#112250"></path><path d="M58.6907 76.5473C58.6727 76.9425 58.6189 77.4455 58.565 77.6611C58.4752 77.9664 58.5291 78.0742 58.7445 78.0742C58.96 78.0742 59.0318 77.8946 59.0139 77.3018C59.0139 76.8886 58.9421 76.3857 58.8523 76.1881C58.7266 75.9006 58.6907 75.9725 58.6907 76.5473Z" fill="#112250"></path><path d="M5.11122 77.6079C5.03939 77.7876 4.98552 78.057 5.00348 78.2187C5.00348 78.4163 5.0753 78.3804 5.18304 78.093C5.27282 77.8594 5.32669 77.572 5.29077 77.4642C5.25486 77.3744 5.18304 77.4283 5.11122 77.6079Z" fill="#112250"></path><path d="M61.2031 80.4993C61.2031 80.6969 61.2749 81.0203 61.3647 81.2179L61.5263 81.5771V81.2179C61.5263 81.0203 61.4545 80.6969 61.3647 80.4993L61.2031 80.1401V80.4993Z" fill="#112250"></path><path d="M2.10938 93.7382C2.10938 94.6363 2.80965 98.0673 3.04308 98.2829C3.16877 98.4087 3.18673 98.3009 3.1149 97.9236C3.04308 97.6183 2.89943 96.5225 2.77374 95.4626C2.64805 94.4028 2.45054 93.4328 2.3428 93.307C2.16324 93.1274 2.10938 93.2172 2.10938 93.7382Z" fill="#112250"></path><path d="M63.16 93.6128C63.0522 93.8642 62.9804 94.3493 62.9804 94.6546C62.9804 94.978 62.8547 95.9839 62.7111 96.918C62.4417 98.5347 62.4776 99.0916 62.8008 98.5707C62.9445 98.3371 63.1779 96.918 63.5011 94.457C63.6448 93.2715 63.4652 92.8044 63.16 93.6128Z" fill="#112250"></path><path d="M3.30489 99.7383C2.99964 100.241 4.04108 104.229 4.61567 104.75C5.15434 105.235 5.19025 105.02 4.70545 104.032C4.45406 103.529 4.13086 102.559 3.96926 101.876C3.48445 99.6664 3.43058 99.5407 3.30489 99.7383Z" fill="#112250"></path><path d="M31.8635 100.062C30.9837 100.385 30.4988 100.816 30.1936 101.553C29.3497 103.529 30.6784 105.379 32.9049 105.379C35.2751 105.361 36.55 103.223 35.3828 101.211C34.7185 100.116 33.1384 99.5947 31.8635 100.062ZM34.7364 101.319C35.4008 102.038 35.4726 102.595 35.0417 103.493C34.5569 104.535 33.3538 105.002 32.079 104.66C30.6784 104.283 30.1038 102.864 30.84 101.643C31.3248 100.852 32.1328 100.511 33.2461 100.601C34.0002 100.655 34.2337 100.762 34.7364 101.319Z" fill="#112250"></path><path d="M34.1214 102.379C34.1393 103.205 33.6545 103.762 32.9183 103.762C32.2899 103.762 31.5537 103.331 31.5537 102.953C31.5537 102.81 31.4819 102.648 31.3741 102.594C30.9971 102.361 31.2125 103.259 31.6435 103.672C31.9667 104.013 32.2719 104.121 32.8824 104.121C33.5468 104.121 33.7443 104.031 34.1573 103.546C34.5164 103.133 34.6062 102.864 34.5164 102.522C34.3369 101.768 34.1034 101.696 34.1214 102.379Z" fill="#112250"></path><path d="M62.1896 100.206C62.1357 100.332 61.9741 101.05 61.7946 101.787C61.633 102.523 61.3457 103.439 61.1481 103.799C60.8609 104.409 59.3885 105.757 58.8139 105.972C58.6882 106.008 58.6523 106.116 58.7241 106.206C59.0832 106.583 61.0225 105.128 61.5611 104.104C62.1537 102.936 62.7821 99.9903 62.441 99.9903C62.3332 99.9903 62.2255 100.098 62.1896 100.206Z" fill="#112250"></path><path d="M5.63636 105.397C5.97752 105.792 7.12669 106.367 7.27034 106.224C7.37808 106.098 5.85183 105.02 5.54658 105.02C5.34907 105.02 5.36702 105.11 5.63636 105.397Z" fill="#112250"></path><path d="M55.9195 106.583C55.6502 106.726 54.9678 106.906 54.3933 106.996C52.4002 107.319 48.8988 107.732 47.4084 107.84C46.5825 107.894 45.8642 108.038 45.7924 108.128C45.6129 108.433 52.7054 107.786 55.4347 107.247C56.0631 107.122 56.6916 106.708 56.6916 106.421C56.6916 106.223 56.53 106.259 55.9195 106.583Z" fill="#112250"></path><path d="M9.47656 106.727C9.47656 106.906 10.4821 107.212 11.9006 107.445C14.2887 107.841 14.8813 107.876 14.8094 107.661C14.7735 107.553 14.0733 107.356 13.2293 107.248C12.4034 107.122 11.3619 106.942 10.913 106.835C10.0332 106.619 9.47656 106.583 9.47656 106.727Z" fill="#112250"></path><path d="M16.76 107.875C16.8677 108.001 17.9451 108.127 19.3636 108.181C20.9078 108.234 21.6799 108.216 21.5003 108.109C21.0873 107.839 16.5086 107.624 16.76 107.875Z" fill="#112250"></path><path d="M24.4593 108.253C24.5132 108.343 25.1955 108.433 25.9497 108.433C26.9013 108.433 27.2425 108.379 27.0629 108.253C26.7038 108.019 24.3157 108.019 24.4593 108.253Z" fill="#112250"></path><path d="M40.0543 108.379C40.2159 108.415 40.5032 108.415 40.6828 108.379C40.8444 108.325 40.7007 108.289 40.3596 108.289C40.0184 108.289 39.8748 108.325 40.0543 108.379Z" fill="#112250"></path></svg> 